<svg xmlns="http://www.w3.org/2000/svg" viewBox="0 0 500 500" width="100%" height="100%">
  <defs>
    <filter id="studioEngineGlow" x="-20%" y="-20%" width="140%" height="140%">
      <feGaussianBlur stdDeviation="6" result="blur" />
      <feComposite in="SourceGraphic" in2="blur" operator="over" />
    </filter>

    <linearGradient id="pipelineFlow" x1="0%" y1="0%" x2="100%" y2="100%">
      <stop offset="0%" stop-color="#0EA5E9" /> <stop offset="50%" stop-color="#8B5CF6" /> <stop offset="100%" stop-color="#10B981" /> </linearGradient>
    
    <linearGradient id="audioMasterGrad" x1="0%" y1="100%" x2="0%" y2="0%">
      <stop offset="0%" stop-color="#6366F1" stop-opacity="0.1"/>
      <stop offset="75%" stop-color="#10B981"/>
      <stop offset="100%" stop-color="#F43F5E"/> </linearGradient>
  </defs>

  <rect width="100%" height="100%" fill="#090D16" rx="16"/>

  <g stroke="#1E293B" stroke-width="1" fill="none" opacity="0.3">
    <circle cx="250" cy="220" r="175"/>
    <circle cx="250" cy="220" r="130" stroke-dasharray="4 6"/>
    <circle cx="250" cy="220" r="85"/>
    <line x1="45" y1="220" x2="455" y2="220" stroke-width="1.5"/>
    <line x1="250" y1="15" x2="250" y2="425" stroke-width="1.5"/>
  </g>

  <g stroke="#10B981" stroke-width="2" fill="none">
    <path d="M 85,115 L 85,85 L 115,85" stroke-linecap="round"/>
    <path d="M 415,115 L 415,85 L 385,85" stroke-linecap="round"/>
    <path d="M 85,325 L 85,355 L 115,355" stroke-linecap="round"/>
    <path d="M 415,325 L 415,355 L 385,355" stroke-linecap="round"/>
  </g>
  
  <rect x="98" y="98" width="304" height="244" fill="none" stroke="#334155" stroke-width="1" stroke-dasharray="3 3" opacity="0.5"/>

  <g transform="translate(130, 220)" fill="url(#audioMasterGrad)">
    <rect x="10" y="5" width="5" height="40" rx="2.5"/>
    <rect x="22" y="-15" width="5" height="60" rx="2.5"/>
    <rect x="34" y="-35" width="5" height="80" rx="2.5"/>
    <rect x="46" y="-5" width="5" height="50" rx="2.5"/>
    <rect x="58" y="-55" width="5" height="100" rx="2.5"/>
    
    <rect x="178" y="-55" width="5" height="100" rx="2.5"/>
    <rect x="190" y="-5" width="5" height="50" rx="2.5"/>
    <rect x="202" y="-35" width="5" height="80" rx="2.5"/>
    <rect x="214" y="-15" width="5" height="60" rx="2.5"/>
    <rect x="226" y="5" width="5" height="40" rx="2.5"/>
  </g>
  <line x1="120" y1="155" x2="380" y2="155" stroke="#F43F5E" stroke-width="1.5" stroke-dasharray="4 4" opacity="0.75"/>
  <text x="375" y="148" font-family="monospace" font-size="9" font-weight="black" fill="#F43F5E" text-anchor="end">-0.1 dBFS MAX</text>

  <g fill="none" stroke="#8B5CF6" stroke-width="3" stroke-linecap="round" opacity="0.8">
    <path d="M 250,55 L 290,95 M 250,55 L 210,95" stroke="url(#pipelineFlow)"/>
    <polygon points="250,42 256,56 244,56" fill="#0EA5E9" filter="url(#studioEngineGlow)"/>
  </g>

  <g filter="url(#studioEngineGlow)">
    <path d="M 160,220 C 160,150 200,120 250,220 C 300,320 340,290 340,220 C 340,150 300,120 250,220 C 200,320 160,290 160,220 Z" 
          fill="none" stroke="url(#pipelineFlow)" stroke-width="7" stroke-linejoin="round" stroke-linecap="round"/>
    
    <circle cx="250" cy="220" r="16" fill="#090D16" stroke="#FFFFFF" stroke-width="3"/>
    <circle cx="250" cy="220" r="7" fill="url(#pipelineFlow)"/>
  </g>

  <g transform="translate(135, 362)">
    <rect width="230" height="32" rx="6" fill="#0F172A" stroke="#232934" stroke-width="2"/>
    <text x="15" y="20" font-family="monospace" font-size="10" font-weight="bold" fill="#10B981">QC: PASSED</text>
    <text x="115" y="20" font-family="monospace" font-size="10" font-weight="bold" fill="#0EA5E9">BITRATE: CFR</text>
    <text x="215" y="20" font-family="monospace" font-size="10" font-weight="bold" fill="#8B5CF6" text-anchor="end">REL: TAGGED</text>
    <circle cx="78" cy="16" r="3" fill="#10B981" filter="url(#studioEngineGlow)"/>
    <circle cx="123" cy="16" r="3" fill="#0EA5E9" opacity="0" filter="url(#studioEngineGlow)"/> </g>

  <text x="80" y="420" font-family="monospace" font-size="10" font-weight="bold" fill="#64748B">PIPELINE: OPTIMIZED</text>
  <text x="420" y="420" font-family="monospace" font-size="10" font-weight="bold" fill="#10B981" text-anchor="end">SIGNAL: TRUE_MASTER</text>

  <text x="250" y="465" font-family="monospace" font-size="14" font-weight="900" fill="#FFFFFF" letter-spacing="6" text-anchor="middle">STUDIO_ORCHESTRATOR</text>
  <text x="250" y="482" font-family="monospace" font-size="10" font-weight="bold" fill="#475569" letter-spacing="4" text-anchor="middle">MEDIA_PIPELINE // DATA_CORE</text>
</svg>
